<svg xmlns="http://www.w3.org/2000/svg" viewBox="0 0 48 32" role="img" aria-label="Flag of Croatia"><rect width="48" height="32" fill="#ffffff"/><rect width="48" height="10.667" fill="#d52b1e"/><rect width="48" height="10.667" y="21.333" fill="#002b7f"/><defs><path id="hrsh" d="M18 8 L30 8 L30 18 Q30 22 24 25 Q18 22 18 18 Z"/><clipPath id="hrcl"><use href="#hrsh"/></clipPath></defs><use href="#hrsh" fill="#ffffff"/><g clip-path="url(#hrcl)"><rect x="18.00" y="8" width="2.4" height="3" fill="#d52b1e"/><rect x="22.80" y="8" width="2.4" height="3" fill="#d52b1e"/><rect x="27.60" y="8" width="2.4" height="3" fill="#d52b1e"/><rect x="20.40" y="11" width="2.4" height="3" fill="#d52b1e"/><rect x="25.20" y="11" width="2.4" height="3" fill="#d52b1e"/><rect x="18.00" y="14" width="2.4" height="3" fill="#d52b1e"/><rect x="22.80" y="14" width="2.4" height="3" fill="#d52b1e"/><rect x="27.60" y="14" width="2.4" height="3" fill="#d52b1e"/><rect x="20.40" y="17" width="2.4" height="3" fill="#d52b1e"/><rect x="25.20" y="17" width="2.4" height="3" fill="#d52b1e"/><rect x="18.00" y="20" width="2.4" height="3" fill="#d52b1e"/><rect x="22.80" y="20" width="2.4" height="3" fill="#d52b1e"/><rect x="27.60" y="20" width="2.4" height="3" fill="#d52b1e"/></g><use href="#hrsh" fill="none" stroke="#002b7f" stroke-width="0.7"/></svg>
